<?xml version="1.0" standalone="no"?>
<!DOCTYPE svg PUBLIC "-//W3C//DTD SVG 20010904//EN"
 "http://www.w3.org/TR/2001/REC-SVG-20010904/DTD/svg10.dtd">
<svg version="1.0" xmlns="http://www.w3.org/2000/svg"
 width="1920.000000pt" height="900.000000pt" viewBox="0 0 1920.000000 900.000000"
 preserveAspectRatio="xMidYMid meet">

<g transform="translate(0.000000,900.000000) scale(0.100000,-0.100000)"
fill="#000000" stroke="none">
<path d="M0 4500 l0 -4500 9600 0 9600 0 0 4500 0 4500 -9600 0 -9600 0 0
-4500z m7357 2711 c15 -9 12 -11 -17 -12 -19 -1 -44 -1 -55 0 -18 2 -18 0 5
-18 14 -11 20 -21 14 -21 -7 0 -9 -11 -6 -25 3 -18 0 -25 -12 -25 -9 0 -16 6
-16 13 0 8 -11 19 -25 25 -15 7 -25 20 -25 32 0 11 -6 20 -12 21 -7 0 1 7 17
15 32 15 103 12 132 -5z m-414 -4 c3 -8 -1 -14 -8 -14 -7 0 -11 6 -8 14 3 7 6
13 8 13 2 0 5 -6 8 -13z m247 -27 c8 -5 11 -10 5 -10 -5 0 -17 5 -25 10 -8 5
-10 10 -5 10 6 0 17 -5 25 -10z m296 -52 l29 -33 -32 29 c-31 28 -38 36 -30
36 2 0 16 -15 33 -32z m-476 -32 c0 -2 -8 -10 -17 -17 -16 -13 -17 -12 -4 4
13 16 21 21 21 13z m555 -46 c3 -5 1 -10 -4 -10 -6 0 -11 5 -11 10 0 6 2 10 4
10 3 0 8 -4 11 -10z m-625 -210 c0 -5 -2 -10 -4 -10 -3 0 -8 5 -11 10 -3 6 -1
10 4 10 6 0 11 -4 11 -10z m-653 -62 c2 -17 0 -19 -7 -8 -5 8 -6 18 -4 22 8
12 10 10 11 -14z m33 -32 c0 -3 -4 -8 -10 -11 -5 -3 -10 -1 -10 4 0 6 5 11 10
11 6 0 10 -2 10 -4z m700 0 c0 -3 -4 -8 -10 -11 -5 -3 -10 -1 -10 4 0 6 5 11
10 11 6 0 10 -2 10 -4z m-625 -26 c3 -6 -1 -7 -9 -4 -18 7 -21 14 -7 14 6 0
13 -4 16 -10z m72 -12 c2 -17 0 -19 -7 -8 -5 8 -6 18 -4 22 8 12 10 10 11 -14z
m1347 -4 c3 -8 2 -12 -4 -9 -6 3 -10 10 -10 16 0 14 7 11 14 -7z m-1097 -30
c-3 -3 -12 -4 -19 -1 -8 3 -5 6 6 6 11 1 17 -2 13 -5z m-373 -33 c3 -5 -1 -11
-9 -15 -8 -3 -17 0 -21 6 -4 7 -3 8 4 4 7 -4 12 -2 12 3 0 13 7 14 14 2z m-44
-23 c10 -21 10 -21 -3 -6 -8 10 -18 14 -22 10 -5 -4 -5 -1 -1 6 10 17 14 15
26 -10z m155 13 c-9 -8 -36 -10 -30 -2 2 4 11 8 20 8 8 0 13 -3 10 -6z m245 3
c0 -8 -19 -13 -24 -6 -3 5 1 9 9 9 8 0 15 -2 15 -3z m-20 -35 c0 -5 -5 -9 -12
-9 -6 0 -8 3 -5 7 4 3 1 13 -6 22 -11 14 -10 14 6 2 9 -7 17 -17 17 -22z
m-273 -3 c0 -8 -8 -11 -21 -8 -19 5 -19 6 0 13 10 4 19 8 20 8 0 1 1 -5 1 -13z
m-58 -50 c-2 -2 -13 8 -23 22 l-19 27 24 -22 c12 -12 21 -24 18 -27z m265 36
c3 -5 -1 -9 -9 -9 -8 0 -12 4 -9 9 3 4 7 8 9 8 2 0 6 -4 9 -8z m826 -12 c0 -5
-15 -10 -33 -10 -18 0 -38 -5 -45 -12 -16 -16 -15 -1 1 17 14 16 77 20 77 5z
m-798 -22 c-9 -9 -15 -9 -24 1 -9 10 -9 12 -1 7 6 -3 15 -1 18 5 4 5 10 8 13
4 3 -3 0 -11 -6 -17z m-351 -11 c-10 -9 -11 -8 -5 6 3 10 9 15 12 12 3 -3 0
-11 -7 -18z m229 -7 c6 -11 8 -20 6 -20 -3 0 -10 9 -16 20 -6 11 -8 20 -6 20
3 0 10 -9 16 -20z m1000 16 c0 -3 -4 -8 -10 -11 -5 -3 -10 -1 -10 4 0 6 5 11
10 11 6 0 10 -2 10 -4z m-1260 -27 c0 -5 -4 -9 -8 -9 -5 0 -9 7 -9 15 0 8 4
12 9 9 4 -3 8 -9 8 -15z m63 1 c3 -11 1 -18 -4 -14 -5 3 -9 12 -9 20 0 20 7
17 13 -6z m602 10 c-3 -5 -1 -10 4 -10 6 0 11 -4 11 -8 0 -5 -13 -9 -30 -9
-21 0 -30 5 -29 16 0 10 2 12 6 4 3 -10 8 -9 20 2 17 17 27 20 18 5z m140 -9
c-2 -20 -35 -28 -35 -8 0 17 6 24 24 24 7 0 13 -7 11 -16z m145 -1 c0 -9 23
-18 65 -26 48 -9 75 -23 69 -38 -3 -8 0 -17 7 -22 8 -5 10 -3 4 6 -6 10 -4 12
9 7 14 -6 16 -3 11 14 -5 15 -4 19 4 14 7 -4 18 -1 26 5 11 9 19 8 36 -4 17
-11 26 -13 36 -4 10 8 12 7 8 -5 -4 -8 -2 -18 4 -22 6 -3 11 1 11 9 0 9 5 16
11 16 5 0 8 -4 4 -9 -3 -5 -1 -12 5 -16 6 -4 8 -11 5 -16 -4 -5 5 -9 18 -9 25
0 62 -32 50 -43 -3 -4 -1 -7 5 -7 7 0 12 8 12 18 0 14 2 15 10 2 8 -12 10 -12
10 -1 0 15 14 6 16 -10 1 -5 2 -13 3 -18 0 -5 9 -11 19 -15 9 -3 23 -9 30 -12
12 -5 12 -2 1 17 -11 21 -10 22 3 12 13 -12 54 -10 66 2 3 2 15 -7 28 -22 22
-25 38 -33 77 -36 9 -1 17 -5 17 -10 0 -5 7 -6 16 -3 8 3 13 2 9 -3 -3 -5 2
-17 12 -26 15 -16 17 -15 32 9 16 26 31 34 31 16 0 -5 -4 -10 -9 -10 -5 0 -16
-11 -24 -24 -13 -20 -14 -27 -3 -42 13 -16 15 -16 30 12 10 16 15 21 12 12 -2
-9 2 -19 10 -22 7 -3 13 -2 13 2 -4 22 2 52 10 52 5 0 14 -12 20 -27 6 -16 15
-38 20 -50 9 -20 8 -21 -13 -13 -24 9 -28 -4 -11 -42 9 -21 30 -24 22 -4 -3 8
0 17 8 20 19 7 37 -47 22 -64 -9 -9 -9 -11 2 -8 10 2 21 -14 32 -47 16 -48 56
-189 65 -230 28 -127 40 -238 36 -327 -2 -31 -5 -35 -22 -31 -12 3 -20 0 -20
-6 0 -7 -4 -10 -9 -7 -4 3 -7 -8 -5 -24 3 -28 -4 -35 -29 -31 -5 1 -6 -3 -3
-8 4 -5 0 -12 -6 -14 -8 -3 -6 -6 5 -6 10 -1 16 -5 12 -11 -3 -5 -13 -6 -23
-3 -15 6 -16 5 -2 -12 14 -17 14 -18 -7 -7 -27 15 -46 15 -38 2 3 -5 1 -10 -6
-10 -7 0 -9 -3 -6 -6 4 -4 13 -1 22 6 12 10 16 9 21 -5 4 -9 2 -21 -5 -28 -8
-8 -11 -7 -11 3 0 10 -3 11 -11 3 -7 -7 -21 -8 -41 -2 -26 7 -28 6 -17 -7 10
-12 9 -13 -5 -8 -9 3 -23 1 -31 -6 -9 -8 -20 -9 -28 -4 -7 5 -4 1 6 -8 11 -10
25 -18 33 -18 8 0 11 7 8 18 -5 14 -4 14 4 2 6 -8 9 -17 6 -21 -7 -12 -44 -17
-44 -6 0 6 -3 7 -7 3 -5 -4 -8 -12 -8 -16 0 -5 -9 -16 -20 -24 -11 -8 -17 -17
-13 -21 3 -4 15 2 26 13 26 26 53 34 72 22 15 -10 12 -11 -27 -13 -20 -2 -44
-28 -36 -40 2 -4 1 -7 -4 -6 -20 3 -23 -3 -12 -23 11 -22 11 -22 -7 -6 -32 28
-47 8 -23 -31 16 -27 22 -31 35 -20 8 6 17 9 21 5 3 -3 2 -6 -3 -6 -5 0 -20
-9 -32 -19 -22 -16 -23 -19 -7 -34 9 -9 12 -17 7 -17 -5 0 -20 -9 -32 -20 -17
-15 -32 -19 -51 -15 -19 4 -28 1 -32 -9 -5 -13 1 -16 28 -16 18 0 36 4 39 9 3
5 15 11 26 14 17 4 19 3 10 -8 -7 -8 -8 -20 -4 -26 5 -8 2 -10 -8 -7 -18 7
-46 -8 -35 -19 5 -4 12 -1 17 7 8 13 10 13 10 1 0 -11 3 -12 11 -4 6 6 17 9
24 7 7 -3 16 -1 20 5 3 6 -1 11 -11 11 -13 0 -14 3 -4 15 7 8 19 15 26 15 8 0
14 4 14 10 0 5 -7 7 -16 3 -14 -5 -15 -3 -5 15 12 22 31 30 31 13 0 -5 8 -11
18 -13 20 -5 99 79 94 100 -2 8 1 11 7 7 6 -3 11 2 11 12 1 10 7 35 14 55 15
43 4 63 -26 47 -10 -5 -16 -14 -13 -20 4 -5 1 -9 -4 -9 -6 0 -11 2 -11 4 0 2
-3 13 -6 23 -5 15 -4 15 5 3 9 -13 11 -13 11 2 0 10 8 16 18 16 9 0 26 3 37 8
17 7 18 6 7 -8 -10 -13 -10 -17 3 -22 10 -3 13 -11 9 -18 -5 -7 -9 -20 -9 -28
-1 -8 -2 -22 -3 -32 -1 -9 -41 -74 -88 -144 -54 -79 -95 -154 -109 -194 -12
-36 -26 -73 -30 -82 -5 -12 -3 -18 6 -18 8 0 6 -5 -6 -12 -14 -9 -146 -12
-460 -14 -450 -2 -731 7 -775 25 -14 5 -19 10 -12 10 28 2 -31 137 -99 229
-22 28 -35 52 -30 52 5 0 12 -8 15 -17 5 -13 9 -14 15 -5 6 10 11 9 22 -4 12
-16 12 -17 -5 -11 -16 6 -17 5 -6 -8 7 -9 19 -14 26 -11 8 3 13 2 13 -2 -3
-19 4 -32 35 -66 30 -33 36 -36 60 -26 37 14 38 13 26 -10 -6 -11 -20 -20 -30
-20 -23 0 -24 -6 -9 -48 12 -34 16 -35 166 -52 50 -5 97 -12 105 -13 7 -2 10
-2 6 0 -5 3 -8 11 -8 18 0 18 -34 25 -111 21 -72 -4 -106 6 -79 24 20 13 103
13 95 0 -3 -5 9 -9 30 -8 40 1 41 5 19 36 -10 15 -11 22 -3 22 7 0 5 8 -6 20
-10 12 -25 18 -32 15 -8 -2 -12 -1 -9 4 8 12 89 10 99 -3 5 -7 7 -2 4 12 -3
12 -1 20 3 17 5 -3 11 -1 14 4 3 5 -5 12 -18 15 -20 5 -23 12 -23 46 0 41 -27
85 -45 74 -5 -3 -23 10 -41 29 -26 28 -35 33 -49 24 -12 -8 -21 -7 -32 2 -17
15 -22 36 -6 26 16 -10 12 11 -5 25 -8 6 -20 9 -27 5 -7 -4 -4 1 6 9 21 17 15
20 -22 10 -14 -4 -21 -12 -18 -20 3 -8 -8 -5 -30 8 -37 22 -44 38 -16 39 11 0
12 2 4 6 -7 3 -20 -1 -29 -9 -10 -8 -14 -8 -10 -1 10 17 -13 28 -24 12 -7 -11
-9 -11 -9 3 0 17 33 34 48 24 24 -14 70 -15 82 -1 9 10 9 15 1 15 -6 0 -11 -4
-11 -10 0 -5 -12 2 -26 15 -15 14 -32 25 -38 25 -13 -1 23 -30 37 -30 4 0 5
-5 2 -10 -4 -6 -12 -4 -22 6 -10 10 -28 14 -49 12 -19 -2 -32 1 -31 7 1 5 -8
9 -20 9 -13 -1 -23 3 -23 9 0 7 -4 7 -12 -1 -8 -8 -17 -8 -37 3 -14 7 -34 16
-43 19 -19 6 -18 34 2 46 8 5 11 12 7 16 -4 4 -2 13 4 20 8 10 6 13 -10 11
-24 -1 -26 -8 -8 -26 10 -11 9 -12 -2 -6 -10 6 -12 4 -7 -6 6 -10 4 -10 -6 1
-8 8 -20 21 -28 29 -8 8 -9 11 -2 7 6 -4 12 -3 12 1 0 5 -6 15 -12 22 -11 11
-9 11 10 2 12 -7 22 -8 22 -2 0 5 3 18 6 28 5 16 5 17 -6 1 -6 -10 -17 -15
-27 -11 -14 6 -14 8 3 20 17 12 17 13 -3 13 -12 0 -23 -6 -25 -12 -3 -7 -7 -2
-10 10 -4 13 -2 22 5 22 8 0 9 3 1 8 -5 4 -18 24 -27 44 -14 30 -16 55 -12
135 9 155 78 476 115 533 9 13 11 13 20 0 7 -11 10 -11 10 -2 0 7 5 10 10 7 6
-3 10 -1 10 6 0 22 55 98 68 94 6 -2 13 0 13 5 1 6 2 14 3 19 0 5 5 13 10 18
5 4 6 3 2 -4 -4 -8 1 -11 13 -10 15 1 17 4 9 14 -8 9 -7 13 2 13 7 0 29 12 48
26 26 20 36 24 42 14 6 -9 10 -7 15 9 3 11 13 21 22 21 10 0 13 6 9 16 -3 8
-2 12 4 9 5 -3 18 3 30 15 24 24 34 26 26 5 -3 -8 0 -15 6 -15 16 0 58 41 58
57 0 7 4 13 10 13 5 0 6 -7 3 -17 -4 -10 -2 -14 5 -9 6 3 14 1 18 -5 4 -7 3
-9 -3 -6 -5 3 -10 0 -10 -8 0 -8 4 -15 9 -15 4 0 8 4 8 10 0 5 8 7 18 4 14 -5
14 -4 2 5 -8 5 -11 13 -7 17 11 12 81 11 89 0 6 -8 8 -8 8 0 0 6 14 9 33 7 17
-2 26 0 20 3 -24 11 -13 22 19 20 25 -1 35 4 42 20 9 20 36 23 36 4z m913 -5
c4 -8 3 -16 -1 -19 -4 -3 -9 4 -9 15 -2 23 3 25 10 4z m-1658 -5 c3 -6 -1 -7
-9 -4 -18 7 -21 14 -7 14 6 0 13 -4 16 -10z m39 -20 c-6 -6 -10 -3 -10 10 0
13 4 16 10 10 7 -7 7 -13 0 -20z m90 22 c3 -5 -1 -9 -9 -9 -8 0 -12 4 -9 9 3
4 7 8 9 8 2 0 6 -4 9 -8z m-383 -19 c13 -16 12 -17 -3 -4 -10 7 -18 15 -18 17
0 8 8 3 21 -13z m234 -1 c-3 -3 -11 0 -18 7 -9 10 -8 11 6 5 10 -3 15 -9 12
-12z m870 8 c3 -6 -1 -7 -9 -4 -18 7 -21 14 -7 14 6 0 13 -4 16 -10z m-1005
-25 c7 -8 9 -15 5 -15 -4 0 -1 -8 6 -17 12 -16 12 -17 -2 -6 -9 7 -20 9 -25 5
-4 -4 -3 1 4 10 11 14 10 18 -5 27 -10 6 -13 11 -7 11 6 0 17 -7 24 -15z m261
-28 c-10 -9 -11 -8 -5 6 3 10 9 15 12 12 3 -3 0 -11 -7 -18z m1219 13 c0 -5
-2 -10 -4 -10 -3 0 -8 5 -11 10 -3 6 -1 10 4 10 6 0 11 -4 11 -10z m180 -44
c0 -6 -7 -1 -15 10 -8 10 -15 23 -15 28 0 6 7 1 15 -10 8 -10 15 -23 15 -28z
m-1825 15 c3 -5 2 -12 -3 -15 -5 -3 -9 1 -9 9 0 17 3 19 12 6z m316 -14 c-10
-9 -11 -8 -5 6 3 10 9 15 12 12 3 -3 0 -11 -7 -18z m-182 10 c-2 -1 -13 -9
-24 -17 -19 -14 -19 -14 -6 3 7 9 18 17 24 17 6 0 8 -1 6 -3z m96 -27 c-3 -5
-12 -10 -18 -10 -7 0 -6 4 3 10 19 12 23 12 15 0z m-524 -63 c-10 -9 -11 -8
-5 6 3 10 9 15 12 12 3 -3 0 -11 -7 -18z m1999 -11 c0 -10 -30 0 -34 11 -4 11
-1 11 14 3 11 -6 20 -12 20 -14z m-2450 -15 c0 -5 -7 -12 -16 -15 -14 -5 -15
-4 -4 9 14 17 20 19 20 6z m1180 -21 c0 -5 -2 -10 -4 -10 -3 0 -8 5 -11 10 -3
6 -1 10 4 10 6 0 11 -4 11 -10z m-40 -4 c0 -2 -7 -7 -16 -10 -8 -3 -12 -2 -9
4 6 10 25 14 25 6z m-1174 -52 c-10 -27 5 -36 27 -17 22 18 22 18 4 -4 -11
-12 -27 -20 -38 -18 -10 2 -19 -1 -19 -7 0 -5 7 -8 15 -5 17 7 30 -9 15 -18
-6 -4 -8 -11 -5 -16 4 -5 -3 -9 -15 -9 -17 0 -20 4 -15 20 4 13 2 20 -6 20 -8
0 -7 5 3 18 9 9 13 23 10 31 -3 8 0 11 7 7 6 -4 11 -2 11 3 0 6 3 11 6 11 3 0
3 -7 0 -16z m1150 1 c-3 -10 1 -15 12 -16 14 0 14 -2 -3 -9 -32 -14 -35 -12
-23 15 12 27 24 35 14 10z m1457 -5 c-3 -12 -8 -19 -11 -16 -5 6 5 36 12 36 2
0 2 -9 -1 -20z m-1970 -35 c-3 -9 -8 -14 -10 -11 -3 3 -2 9 2 15 9 16 15 13 8
-4z m517 -5 c-8 -5 -19 -10 -25 -10 -5 0 -3 5 5 10 8 5 20 10 25 10 6 0 3 -5
-5 -10z m-776 -18 c2 -4 -7 -8 -22 -9 -24 -2 -24 -1 -7 7 11 5 21 9 22 9 1 1
4 -3 7 -7z m436 -78 c0 -3 -5 -2 -10 1 -6 4 -19 1 -28 -7 -15 -11 -15 -11 -5
3 7 9 9 19 5 24 -4 4 3 2 16 -4 12 -6 22 -14 22 -17z m-494 1 c19 -15 19 -15
-1 -8 -18 6 -18 5 -6 -10 9 -11 10 -17 2 -17 -6 0 -11 5 -11 11 0 6 -9 8 -21
4 -15 -5 -19 -4 -15 4 4 6 15 11 24 11 15 0 15 2 2 10 -8 5 -10 10 -4 10 5 0
19 -7 30 -15z m47 -20 c-3 -9 -8 -14 -10 -11 -3 3 -2 9 2 15 9 16 15 13 8 -4z
m172 -75 c-3 -5 2 -10 11 -10 10 0 15 -3 11 -6 -3 -3 -15 -3 -28 1 -17 6 -19
9 -8 16 18 11 22 11 14 -1z m-245 -9 c0 -5 -7 -11 -14 -14 -10 -4 -13 -1 -9 9
6 15 23 19 23 5z m-94 -110 c-4 -5 0 -12 6 -15 7 -3 2 -3 -10 0 -22 5 -23 4
-12 -18 11 -22 11 -22 -5 -3 -14 18 -14 21 2 32 20 15 26 16 19 4z m371 -7 c0
-7 -9 -11 -19 -9 -10 2 -18 -2 -18 -8 0 -7 -4 -7 -9 3 -6 8 -8 17 -6 20 7 11
52 6 52 -6z m-647 -24 c0 -5 -2 -10 -4 -10 -3 0 -8 5 -11 10 -3 6 -1 10 4 10
6 0 11 -4 11 -10z m220 -40 c0 -5 -5 -10 -11 -10 -5 0 -7 5 -4 10 3 6 8 10 11
10 2 0 4 -4 4 -10z m147 -27 c-4 -3 0 -11 9 -17 13 -10 13 -12 -3 -12 -11 0
-20 8 -20 18 -1 10 3 18 9 18 6 0 8 -3 5 -7z m219 -35 c-9 -12 -16 -19 -16
-15 0 11 24 47 28 42 2 -2 -3 -14 -12 -27z m-828 -1 c7 -8 7 -18 2 -27 -5 -8
-7 -17 -4 -21 2 -4 -4 -5 -14 -2 -10 2 -18 13 -18 24 0 15 5 19 21 15 20 -5
20 -5 1 9 -11 8 -15 15 -9 15 6 0 15 -6 21 -13z m871 -55 c-5 -2 -7 -7 -5 -11
3 -4 -2 -8 -10 -8 -9 0 -11 4 -5 10 5 5 7 17 3 25 -5 14 -4 15 10 2 9 -8 12
-17 7 -18z m-394 8 c3 -6 -1 -7 -9 -4 -18 7 -21 14 -7 14 6 0 13 -4 16 -10z
m-1265 -24 c0 -3 -4 -8 -10 -11 -5 -3 -10 -1 -10 4 0 6 5 11 10 11 6 0 10 -2
10 -4z m1290 -2 c0 -8 -19 -13 -24 -6 -3 5 1 9 9 9 8 0 15 -2 15 -3z m-16
-126 c-9 -14 -22 -9 -27 11 -4 17 -2 18 13 8 10 -6 16 -15 14 -19z m-270 -3
c-3 -8 -12 -11 -19 -9 -8 3 -11 12 -9 19 3 8 12 11 19 9 8 -3 11 -12 9 -19z
m-189 -75 c-4 -6 -12 -8 -18 -4 -7 3 -3 -1 7 -10 17 -14 17 -16 3 -22 -9 -3
-14 -10 -11 -15 3 -5 -2 -6 -10 -3 -19 7 -21 35 -4 52 15 15 42 16 33 2z
m-238 -62 c2 -17 0 -19 -7 -8 -5 8 -6 18 -4 22 8 12 10 10 11 -14z m1553 -48
c0 -5 -4 -10 -10 -10 -5 0 -10 5 -10 10 0 6 5 10 10 10 6 0 10 -4 10 -10z m20
-40 c-12 -8 -10 -10 8 -10 13 0 20 -4 17 -10 -3 -5 -1 -10 6 -10 7 0 9 -3 6
-7 -4 -3 -2 -12 4 -19 10 -13 7 -16 -25 -28 -15 -5 -17 -2 -13 14 3 11 1 18
-4 14 -5 -3 -10 1 -11 8 -4 37 -4 44 -1 51 2 4 10 7 16 7 7 0 6 -4 -3 -10z
m1787 -65 c0 -8 -4 -12 -9 -9 -5 3 -6 10 -3 15 9 13 12 11 12 -6z m1122 -19
c-3 -3 -11 5 -18 17 -13 21 -12 21 5 5 10 -10 16 -20 13 -22z m-3599 18 c0 -8
-19 -13 -24 -6 -3 5 1 9 9 9 8 0 15 -2 15 -3z m2429 3 c-2 -1 -13 -9 -24 -17
-19 -14 -19 -14 -6 3 7 9 18 17 24 17 6 0 8 -1 6 -3z m-78 -40 c-10 -9 -11 -8
-5 6 3 10 9 15 12 12 3 -3 0 -11 -7 -18z m-2656 -16 c3 -5 2 -12 -3 -15 -5 -3
-9 1 -9 9 0 17 3 19 12 6z m1185 5 c0 -3 -4 -8 -10 -11 -5 -3 -10 -1 -10 4 0
6 5 11 10 11 6 0 10 -2 10 -4z m-1160 -20 c0 -2 -8 -10 -17 -17 -16 -13 -17
-12 -4 4 13 16 21 21 21 13z m2636 -15 c-4 -5 -1 -12 4 -14 6 -3 5 -4 -2 -3
-15 3 -23 26 -8 26 6 0 9 -4 6 -9z m-1619 -33 c4 -28 -6 -18 -12 12 -2 12 -1
20 2 16 4 -4 8 -16 10 -28z m-1017 18 c0 -2 -6 -9 -14 -15 -11 -9 -16 -9 -22
0 -4 7 -3 9 4 5 6 -3 13 -2 17 4 6 10 15 14 15 6z m1089 -47 c-11 -7 -9 -9 5
-9 11 0 17 -3 13 -6 -12 -12 -37 5 -31 21 3 8 11 12 16 9 6 -4 5 -10 -3 -15z
m-1042 -44 c0 -8 -4 -12 -9 -9 -5 3 -6 10 -3 15 9 13 12 11 12 -6z m2533 1 c0
-11 -19 -15 -25 -6 -3 5 1 10 9 10 9 0 16 -2 16 -4z m70 0 c0 -2 -7 -7 -16
-10 -8 -3 -12 -2 -9 4 6 10 25 14 25 6z m-1433 -63 c-10 -3 -14 -9 -10 -16 4
-7 -1 -6 -10 2 -23 18 -22 21 11 20 17 -1 20 -3 9 -6z m-673 -11 c3 -5 -1 -9
-9 -9 -8 0 -12 4 -9 9 3 4 7 8 9 8 2 0 6 -4 9 -8z m894 -11 c10 -6 8 -10 -9
-14 -13 -4 -25 -4 -28 -2 -2 3 1 5 8 5 7 0 9 5 6 10 -8 12 5 13 23 1z m-40
-50 c-4 -20 -48 -27 -59 -10 -12 20 -2 28 32 27 22 -1 29 -5 27 -17z m39 3
c-3 -3 -12 -4 -19 -1 -8 3 -5 6 6 6 11 1 17 -2 13 -5z m-172 -22 c-3 -3 -11 0
-18 7 -9 10 -8 11 6 5 10 -3 15 -9 12 -12z m248 -49 c-6 -15 -19 -17 -27 -4
-7 11 0 18 18 18 8 0 12 -6 9 -14z m-63 -79 c0 -14 -3 -14 -15 -4 -8 7 -15 14
-15 16 0 2 7 4 15 4 8 0 15 -7 15 -16z m-213 -296 c-2 -18 -4 -4 -4 32 0 36 2
50 4 33 2 -18 2 -48 0 -65z m65 -129 l38 -19 -2 -63 -2 -62 -3 61 c-4 58 -6
63 -34 74 -30 13 -60 45 -58 65 0 5 5 0 12 -13 6 -13 28 -32 49 -43z m1138 6
c0 -2 -14 -12 -30 -20 -30 -15 -31 -18 -28 -78 2 -41 8 -66 18 -75 13 -11 11
-11 -7 -2 -20 9 -23 18 -23 75 0 63 1 66 33 85 35 21 37 22 37 15z m-2983 -21
c-3 -3 -12 -4 -19 -1 -8 3 -5 6 6 6 11 1 17 -2 13 -5z m123 -44 c0 -5 -2 -10
-4 -10 -3 0 -8 5 -11 10 -3 6 -1 10 4 10 6 0 11 -4 11 -10z m54 -45 c21 -22
64 -36 71 -25 4 6 -3 10 -14 10 -11 0 -23 5 -26 10 -4 6 6 10 23 10 18 0 32
-6 36 -16 5 -12 17 -15 50 -13 24 2 42 1 40 -3 -8 -13 9 -38 27 -38 23 0 25
23 4 43 -12 13 -12 16 8 21 31 8 99 -14 93 -30 -3 -8 -1 -16 3 -19 5 -2 12
-26 16 -51 3 -26 15 -55 24 -66 22 -23 39 -150 21 -156 -6 -2 -2 -12 10 -22
14 -12 17 -21 10 -25 -8 -5 -8 -11 0 -19 5 -7 11 -32 12 -55 1 -22 5 -41 10
-41 4 0 8 -7 8 -15 0 -10 11 -15 30 -16 28 -1 38 -3 58 -9 18 -5 -66 -18 -90
-13 -32 6 -40 28 -41 108 -1 51 -4 63 -26 82 -14 13 -29 23 -33 23 -3 0 -4 8
-1 19 6 25 -9 33 -62 33 -57 0 -57 12 -2 32 l42 16 -40 -6 c-22 -3 -44 -10
-49 -15 -13 -11 -36 -12 -36 0 0 5 15 12 33 16 23 6 27 9 14 12 -21 5 -77 -15
-77 -28 0 -5 5 -9 12 -9 6 0 9 -3 5 -6 -3 -3 -15 1 -27 9 -15 11 -18 16 -8 20
7 2 0 8 -16 12 -18 5 -36 3 -47 -4 -25 -15 -44 -14 -59 4 -7 9 -20 15 -29 14
-31 -3 -40 1 -35 16 4 8 17 15 29 15 15 0 26 8 30 20 5 16 12 18 48 13 23 -3
51 -12 62 -19 11 -8 26 -14 35 -13 10 0 9 3 -4 8 -11 4 -15 10 -10 14 6 3 23
-1 39 -9 26 -13 30 -13 37 0 7 12 14 13 35 5 33 -12 36 -8 17 20 -11 15 -19
19 -28 12 -8 -7 -15 -4 -24 10 -11 16 -9 19 9 19 11 0 17 5 14 10 -3 6 -16 10
-29 10 -12 0 -27 5 -34 12 -10 10 -15 8 -27 -9 -10 -14 -22 -20 -37 -17 -13 2
-17 1 -10 -2 10 -5 9 -9 -4 -19 -19 -13 -84 0 -84 18 0 5 7 6 16 3 8 -3 12 -2
9 4 -8 13 -46 13 -80 0 -14 -5 -24 -6 -21 -1 3 4 -8 8 -25 9 -26 1 -30 -2 -26
-19 3 -10 1 -17 -4 -13 -5 3 -9 11 -9 19 0 16 -61 18 -122 5 -22 -4 -36 -4
-32 1 3 5 -1 9 -8 9 -20 0 -89 -50 -83 -60 3 -5 -9 -11 -27 -13 -23 -3 -17 -5
22 -6 48 -3 51 -4 24 -10 -17 -4 -35 -11 -41 -14 -5 -3 -26 -2 -46 4 -29 8
-41 7 -62 -7 -20 -13 -31 -14 -48 -6 -22 11 -22 11 3 11 14 1 33 10 43 21 22
26 22 30 -5 31 -13 0 -17 3 -10 6 10 4 10 8 0 20 -11 14 -10 15 10 9 13 -5 22
-3 22 3 0 6 -9 11 -21 11 -11 0 -17 5 -14 10 3 6 1 10 -4 10 -6 0 -11 4 -11 9
0 5 10 7 22 3 13 -3 19 -1 15 5 -4 7 9 7 41 1 70 -13 334 -9 348 5 4 4 -1 6
-12 5 -10 -2 -20 2 -21 7 -2 6 10 11 25 11 15 1 44 2 65 3 23 0 36 5 32 11
-10 16 12 12 29 -5z m1706 -55 c0 -5 -10 -10 -22 -9 -22 0 -22 1 -3 9 11 5 21
9 23 9 1 1 2 -3 2 -9z m-1736 -64 c-3 -8 2 -16 13 -19 11 -3 6 -5 -12 -6 -22
-1 -26 -4 -16 -10 11 -7 7 -10 -15 -13 -18 -2 -28 -8 -26 -16 1 -8 -2 -11 -8
-7 -5 3 -30 7 -55 9 -25 1 -48 6 -52 10 -5 5 17 6 48 4 36 -2 61 1 68 10 13
14 13 14 -49 14 -38 0 -40 1 -11 5 19 2 40 11 48 18 7 8 20 12 27 9 8 -3 17 0
21 5 9 15 25 4 19 -13z m216 14 c0 -5 -5 -10 -11 -10 -5 0 -7 5 -4 10 3 6 8
10 11 10 2 0 4 -4 4 -10z m-383 -24 c3 -3 -10 -6 -31 -6 -20 0 -35 4 -32 9 6
10 52 8 63 -3z m56 7 c-7 -2 -21 -2 -30 0 -10 3 -4 5 12 5 17 0 24 -2 18 -5z
m-149 -38 c-6 -16 -24 -21 -24 -7 0 11 11 22 21 22 5 0 6 -7 3 -15z m1930 -51
c3 -8 2 -12 -4 -9 -6 3 -10 10 -10 16 0 14 7 11 14 -7z m-2126 -26 c-29 -22
-35 -22 -47 1 -9 17 -6 18 30 17 l39 -1 -22 -17z m459 -4 c-3 -3 -12 -4 -19
-1 -8 3 -5 6 6 6 11 1 17 -2 13 -5z m-242 -24 c3 -5 1 -10 -4 -10 -6 0 -11 5
-11 10 0 6 2 10 4 10 3 0 8 -4 11 -10z m272 -6 c-3 -3 -12 -4 -19 -1 -8 3 -5
6 6 6 11 1 17 -2 13 -5z m59 -18 c30 -23 12 -27 -21 -6 -18 12 -24 20 -14 20
8 0 24 -6 35 -14z m1585 -89 c-10 -9 -11 -8 -5 6 3 10 9 15 12 12 3 -3 0 -11
-7 -18z m1249 -127 l25 -8 -25 -1 c-14 0 -32 4 -40 9 -13 9 -13 10 0 9 8 -1
26 -5 40 -9z m-1285 -10 c-3 -5 -12 -10 -18 -10 -7 0 -6 4 3 10 19 12 23 12
15 0z m1346 -17 c13 -16 12 -17 -3 -4 -10 7 -18 15 -18 17 0 8 8 3 21 -13z
m-2466 -23 c-3 -5 3 -10 14 -10 11 0 22 -4 25 -8 7 -11 -106 -14 -124 -2 -16
10 -8 15 40 23 45 8 51 7 45 -3z m175 -125 c188 -58 186 -57 288 -101 17 -7
32 -19 32 -25 0 -8 -6 -6 -17 4 -24 21 -121 55 -320 113 -29 8 -55 20 -59 26
-4 6 -1 8 7 5 8 -3 39 -13 69 -22z m2377 -197 c-3 -8 -6 -5 -6 6 -1 11 2 17 5
13 3 -3 4 -12 1 -19z m-2016 -25 c13 -16 12 -17 -3 -4 -10 7 -18 15 -18 17 0
8 8 3 21 -13z m-3706 -553 c3 -5 -3 -10 -14 -10 -12 0 -21 5 -21 10 0 6 6 10
14 10 8 0 18 -4 21 -10z"/>
<path d="M7737 6339 c7 -7 15 -10 18 -7 3 3 -2 9 -12 12 -14 6 -15 5 -6 -5z"/>
<path d="M7770 6333 c0 -6 8 -17 18 -24 16 -13 16 -13 2 6 -8 11 -16 22 -17
24 -2 2 -3 0 -3 -6z"/>
<path d="M7862 6276 c7 -8 15 -12 17 -11 5 6 -10 25 -20 25 -5 0 -4 -6 3 -14z"/>
<path d="M8096 6051 c-4 -5 -2 -12 3 -15 5 -4 12 -2 15 3 4 5 2 12 -3 15 -5 4
-12 2 -15 -3z"/>
<path d="M6760 5471 c15 -30 30 -35 17 -6 -7 14 -16 25 -20 25 -4 0 -3 -9 3
-19z"/>
<path d="M6525 5380 c-3 -5 -2 -10 4 -10 5 0 13 5 16 10 3 6 2 10 -4 10 -5 0
-13 -4 -16 -10z"/>
<path d="M6556 5343 c-3 -7 1 -13 9 -13 8 0 15 5 15 11 0 5 5 7 10 4 6 -3 10
-2 10 4 0 14 -39 9 -44 -6z"/>
<path d="M7638 5333 c7 -3 16 -2 19 1 4 3 -2 6 -13 5 -11 0 -14 -3 -6 -6z"/>
<path d="M6508 5323 c7 -3 16 -2 19 1 4 3 -2 6 -13 5 -11 0 -14 -3 -6 -6z"/>
<path d="M7697 5319 c7 -7 15 -10 18 -7 3 3 -2 9 -12 12 -14 6 -15 5 -6 -5z"/>
<path d="M6533 5305 c-18 -8 -33 -19 -33 -25 0 -9 51 15 79 37 10 8 -17 1 -46
-12z"/>
<path d="M7626 5308 c3 -5 10 -6 15 -3 13 9 11 12 -6 12 -8 0 -12 -4 -9 -9z"/>
<path d="M7702 5291 c-11 -7 -10 -9 3 -15 9 -3 13 -11 9 -17 -4 -7 -1 -10 7
-7 18 6 25 48 7 48 -7 0 -19 -4 -26 -9z"/>
<path d="M6606 5258 c3 -5 10 -6 15 -3 13 9 11 12 -6 12 -8 0 -12 -4 -9 -9z"/>
<path d="M7740 5250 c0 -5 7 -10 15 -10 8 0 15 5 15 10 0 6 -7 10 -15 10 -8 0
-15 -4 -15 -10z"/>
<path d="M7795 5230 c22 -24 32 -25 32 -5 0 9 -6 14 -14 11 -7 -3 -13 -1 -13
4 0 6 -5 10 -12 10 -6 0 -3 -9 7 -20z"/>
<path d="M7915 5230 c-3 -5 -1 -10 4 -10 6 0 11 5 11 10 0 6 -2 10 -4 10 -3 0
-8 -4 -11 -10z"/>
<path d="M7660 5219 c0 -5 9 -9 20 -9 11 0 20 2 20 4 0 2 -9 6 -20 9 -11 3
-20 1 -20 -4z"/>
<path d="M7735 5210 c-3 -6 1 -7 9 -4 18 7 21 14 7 14 -6 0 -13 -4 -16 -10z"/>
<path d="M7580 5200 c0 -5 5 -10 11 -10 5 0 7 5 4 10 -3 6 -8 10 -11 10 -2 0
-4 -4 -4 -10z"/>
<path d="M7780 5201 c0 -6 -7 -11 -15 -11 -8 0 -15 -4 -15 -9 0 -13 -58 -32
-65 -20 -4 5 -11 9 -17 9 -6 0 -5 -7 3 -17 8 -10 9 -14 2 -10 -6 4 -14 3 -17
-2 -4 -5 8 -9 28 -8 19 1 31 6 28 11 -3 5 2 6 12 3 10 -4 15 -3 11 3 -3 6 -2
10 4 10 5 0 12 -4 16 -10 3 -5 11 -7 19 -4 9 3 11 -3 8 -26 -2 -17 -10 -30
-19 -30 -8 0 -11 -5 -7 -12 5 -7 2 -9 -7 -6 -42 16 -61 19 -55 10 6 -10 -34
-62 -48 -62 -4 0 0 7 8 16 23 23 20 34 -10 34 -19 0 -25 -4 -21 -14 4 -10 -4
-18 -24 -25 -16 -5 -29 -13 -29 -16 0 -3 5 -3 10 0 6 4 17 1 26 -5 11 -10 12
-16 2 -27 -9 -11 -8 -13 3 -11 9 2 13 -4 11 -14 -3 -20 6 -22 27 -9 10 6 25 4
43 -5 21 -11 28 -12 26 -2 -4 19 37 21 55 4 16 -17 32 -22 23 -8 -3 5 3 22 14
39 18 30 17 43 -2 43 -5 0 -6 -5 -2 -12 4 -7 3 -8 -5 -4 -15 10 29 65 47 58 6
-2 12 1 12 7 0 6 -12 16 -26 22 -26 9 -26 10 -8 23 10 8 16 18 11 22 -4 4 -7
2 -7 -5 0 -7 -5 -9 -10 -6 -8 5 -8 11 0 20 9 11 7 12 -11 8 -14 -4 -20 -2 -16
4 4 6 -4 9 -21 7 -15 -2 -20 -1 -12 3 25 11 41 31 30 38 -5 3 -10 1 -10 -4z
m25 -141 c3 -5 2 -10 -4 -10 -5 0 -13 5 -16 10 -3 6 -2 10 4 10 5 0 13 -4 16
-10z m-83 -42 c-7 -7 -12 -8 -12 -2 0 14 12 26 19 19 2 -3 -1 -11 -7 -17z m72
-27 c4 -5 -3 -7 -14 -4 -23 6 -26 13 -6 13 8 0 17 -4 20 -9z m-124 -11 c-8 -5
-19 -10 -25 -10 -5 0 -3 5 5 10 8 5 20 10 25 10 6 0 3 -5 -5 -10z"/>
<path d="M7905 5200 c4 -6 11 -8 16 -5 14 9 11 15 -7 15 -8 0 -12 -5 -9 -10z"/>
<path d="M7473 5183 c0 -7 7 -15 15 -18 11 -4 12 -8 3 -19 -7 -8 -8 -17 -3
-20 6 -3 12 4 15 15 4 16 12 20 30 17 26 -5 34 17 10 26 -8 3 -11 1 -8 -4 3
-6 -5 -10 -19 -10 -14 0 -26 5 -26 11 0 6 7 9 15 5 8 -3 15 -1 15 4 0 5 -10 9
-23 8 -13 -1 -24 -8 -24 -15z"/>
<path d="M7653 5183 c9 -2 23 -2 30 0 6 3 -1 5 -18 5 -16 0 -22 -2 -12 -5z"/>
<path d="M6752 5144 c-14 -15 -7 -17 22 -5 15 6 16 9 5 13 -8 3 -20 -1 -27 -8z"/>
<path d="M6896 5128 c3 -4 11 -5 19 -1 21 7 19 12 -4 10 -11 0 -18 -5 -15 -9z"/>
<path d="M7740 5110 c18 -12 30 -13 30 -2 0 4 -10 9 -22 9 -18 2 -20 0 -8 -7z"/>
<path d="M7884 5075 c-3 -14 -11 -26 -18 -26 -6 -1 -18 -2 -26 -3 -8 0 -15 -8
-15 -16 0 -8 7 -15 15 -16 38 -2 44 -6 20 -15 l-25 -8 25 2 c18 1 24 7 22 20
-2 11 5 25 15 34 14 11 15 15 4 20 -10 4 -10 7 -1 13 8 5 9 10 1 14 -6 4 -13
-4 -17 -19z"/>
<path d="M6880 5080 c0 -4 6 -12 13 -18 10 -8 13 -6 13 7 0 10 -6 18 -13 18
-7 0 -13 -4 -13 -7z"/>
<path d="M6929 5026 c-15 -10 -14 -13 7 -23 21 -10 24 -9 24 7 0 25 -12 31
-31 16z"/>
<path d="M7741 4941 c-10 -6 -9 -10 3 -14 8 -3 18 -2 21 3 8 13 -9 20 -24 11z"/>
<path d="M7064 4895 c4 -17 2 -25 -6 -25 -9 0 -9 -3 2 -9 8 -6 17 -8 20 -6 10
6 -1 65 -12 65 -6 0 -7 -11 -4 -25z"/>
<path d="M7540 4909 c0 -11 9 -16 30 -16 17 0 30 3 30 7 0 4 -10 7 -22 6 -13
-1 -26 3 -30 9 -5 6 -8 4 -8 -6z"/>
<path d="M7620 4905 c-7 -9 -11 -17 -9 -20 3 -2 10 5 17 15 14 24 10 26 -8 5z"/>
<path d="M7708 4903 c7 -3 16 -2 19 1 4 3 -2 6 -13 5 -11 0 -14 -3 -6 -6z"/>
<path d="M7610 4866 c0 -2 7 -6 15 -10 8 -3 15 -1 15 4 0 6 -7 10 -15 10 -8 0
-15 -2 -15 -4z"/>
<path d="M7078 4833 c6 -2 18 -2 25 0 6 3 1 5 -13 5 -14 0 -19 -2 -12 -5z"/>
<path d="M7748 4823 c-45 -3 -56 -7 -51 -18 4 -11 -2 -15 -20 -15 -14 0 -28 6
-30 13 -4 7 -6 6 -6 -5 -1 -9 5 -19 12 -21 9 -4 8 -8 -3 -16 -8 -5 -11 -13 -7
-17 4 -4 15 2 23 15 12 16 23 22 40 18 17 -3 25 1 29 14 7 21 20 25 30 9 3 -5
-1 -10 -9 -10 -10 0 -16 -9 -16 -24 0 -22 5 -24 54 -28 65 -4 119 5 95 16 -10
4 -25 6 -34 4 -10 -2 -20 3 -22 10 -3 6 2 12 11 12 21 0 21 19 0 27 -9 3 -20
0 -26 -8 -7 -10 -8 -8 -3 9 3 12 3 21 -2 20 -4 -1 -34 -3 -65 -5z"/>
<path d="M7927 4772 c-10 -10 -17 -23 -17 -28 0 -5 5 -1 11 9 6 9 14 15 18 13
4 -3 8 1 8 9 0 19 -1 19 -20 -3z"/>
<path d="M7080 4771 c0 -6 4 -13 10 -16 6 -3 7 1 4 9 -7 18 -14 21 -14 7z"/>
<path d="M7390 4765 c0 -9 44 -23 54 -18 4 3 2 9 -5 14 -15 10 -49 12 -49 4z"/>
<path d="M7535 4761 c-3 -6 3 -15 14 -20 28 -16 33 -14 21 9 -12 22 -25 26
-35 11z"/>
<path d="M7688 4763 c7 -3 16 -2 19 1 4 3 -2 6 -13 5 -11 0 -14 -3 -6 -6z"/>
<path d="M7595 4750 c3 -5 11 -10 16 -10 6 0 7 5 4 10 -3 6 -11 10 -16 10 -6
0 -7 -4 -4 -10z"/>
<path d="M7060 4710 c-13 -8 -12 -10 3 -10 9 0 17 5 17 10 0 12 -1 12 -20 0z"/>
<path d="M7672 4685 c-7 -8 -9 -15 -4 -15 5 0 15 7 22 15 16 19 -1 19 -18 0z"/>
<path d="M7065 4680 c-38 -5 -36 -6 24 -13 86 -10 117 -9 106 2 -13 12 -80 17
-130 11z"/>
<path d="M7268 4663 c6 -2 18 -2 25 0 6 3 1 5 -13 5 -14 0 -19 -2 -12 -5z"/>
<path d="M7328 4663 c6 -2 18 -2 25 0 6 3 1 5 -13 5 -14 0 -19 -2 -12 -5z"/>
<path d="M7438 4663 c7 -3 16 -2 19 1 4 3 -2 6 -13 5 -11 0 -14 -3 -6 -6z"/>
<path d="M4978 4213 c7 -3 16 -2 19 1 4 3 -2 6 -13 5 -11 0 -14 -3 -6 -6z"/>
<path d="M5098 4213 c7 -3 16 -2 19 1 4 3 -2 6 -13 5 -11 0 -14 -3 -6 -6z"/>
<path d="M5088 4053 c7 -3 16 -2 19 1 4 3 -2 6 -13 5 -11 0 -14 -3 -6 -6z"/>
<path d="M5273 4053 c9 -2 23 -2 30 0 6 3 -1 5 -18 5 -16 0 -22 -2 -12 -5z"/>
</g>
</svg>
